<?xml version="1.0" encoding="utf-8"?>
<!-- Generator: Adobe Illustrator 19.0.0, SVG Export Plug-In . SVG Version: 6.00 Build 0)  -->
<svg version="1.1" id="Logo" xmlns="http://www.w3.org/2000/svg" xmlns:xlink="http://www.w3.org/1999/xlink" x="0px" y="0px"
	 viewBox="0 0 1080 1080" style="enable-background:new 0 0 1080 1080;" xml:space="preserve">
<g id="XMLID_298_">
	<path id="XMLID_310_" d="M283,567.5c7,9,10.5,19.2,10.5,30.7c0,16.6-5.8,29.8-17.4,39.5c-11.6,9.7-27.8,14.6-48.5,14.6H135V453.5
		h89.4c20.2,0,36,4.6,47.4,13.9c11.4,9.2,17.1,21.8,17.1,37.6c0,11.7-3.1,21.4-9.2,29.2c-6.1,7.7-14.3,13.1-24.5,16.1
		C266.8,552.8,276,558.5,283,567.5z M183.4,533.9h31.7c7.9,0,14-1.7,18.3-5.2c4.2-3.5,6.4-8.6,6.4-15.4c0-6.8-2.1-12-6.4-15.6
		c-4.2-3.6-10.3-5.4-18.3-5.4h-31.7V533.9z M237.9,607.6c4.4-3.7,6.7-9,6.7-16c0-7-2.3-12.5-6.9-16.4c-4.6-4-11-5.9-19.1-5.9h-35.1
		v43.9h35.7C227.2,613.2,233.4,611.3,237.9,607.6z"/>
	<path id="XMLID_307_" d="M321.1,530.2c6.1-12.3,14.5-21.7,25-28.3c10.6-6.6,22.4-9.9,35.4-9.9c11.1,0,20.9,2.3,29.3,6.8
		c8.4,4.5,14.9,10.5,19.4,17.8v-22.4h48.4v157.9h-48.4v-22.4c-4.7,7.4-11.3,13.3-19.7,17.8c-8.4,4.5-18.2,6.8-29.3,6.8
		c-12.8,0-24.5-3.3-35.1-10c-10.6-6.7-18.9-16.2-25-28.6c-6.1-12.4-9.2-26.6-9.2-42.9C311.9,556.7,315,542.5,321.1,530.2z
		 M420.1,544.7c-6.7-7-14.9-10.5-24.5-10.5c-9.6,0-17.8,3.4-24.5,10.3c-6.7,6.9-10,16.4-10,28.4c0,12.1,3.3,21.7,10,28.7
		c6.7,7.1,14.9,10.6,24.5,10.6c9.6,0,17.8-3.5,24.5-10.5c6.7-7,10-16.5,10-28.6C430.2,561.2,426.8,551.7,420.1,544.7z"/>
	<path id="XMLID_305_" d="M654.3,510.6c10.9,12,16.4,28.4,16.4,49.4v92.3h-48.1v-85.8c0-10.6-2.7-18.8-8.2-24.6
		c-5.5-5.8-12.8-8.8-22.1-8.8c-9.2,0-16.6,2.9-22.1,8.8c-5.5,5.9-8.2,14.1-8.2,24.6v85.8h-48.4V442.8h48.4v72.7
		c4.9-7,11.6-12.5,20.1-16.7c8.5-4.1,18-6.2,28.6-6.2C628.9,492.6,643.4,498.6,654.3,510.6z"/>
	<path id="XMLID_302_" d="M708,470.4c-5.4-5-8.1-11.2-8.1-18.5c0-7.5,2.7-13.8,8.1-18.8c5.4-5,12.3-7.5,20.8-7.5
		c8.3,0,15.1,2.5,20.5,7.5c5.4,5,8.1,11.3,8.1,18.8c0,7.4-2.7,13.5-8.1,18.5c-5.4,5-12.2,7.5-20.5,7.5
		C720.3,477.9,713.3,475.4,708,470.4z M752.8,494.3v157.9h-48.4V494.3H752.8z"/>
	<path id="XMLID_299_" d="M787.5,530.2c6.1-12.3,14.5-21.7,25-28.3c10.6-6.6,22.4-9.9,35.4-9.9c11.1,0,20.9,2.3,29.3,6.8
		c8.4,4.5,14.9,10.5,19.4,17.8v-22.4H945v157.9h-48.4v-22.4c-4.7,7.4-11.3,13.3-19.7,17.8c-8.4,4.5-18.2,6.8-29.3,6.8
		c-12.8,0-24.5-3.3-35.1-10c-10.6-6.7-18.9-16.2-25-28.6c-6.1-12.4-9.2-26.6-9.2-42.9C778.3,556.7,781.4,542.5,787.5,530.2z
		 M886.6,544.7c-6.7-7-14.9-10.5-24.5-10.5c-9.6,0-17.8,3.4-24.5,10.3c-6.7,6.9-10,16.4-10,28.4c0,12.1,3.3,21.7,10,28.7
		c6.7,7.1,14.9,10.6,24.5,10.6c9.6,0,17.8-3.5,24.5-10.5c6.7-7,10-16.5,10-28.6C896.6,561.2,893.3,551.7,886.6,544.7z"/>
</g>
</svg>
