<?xml version="1.0" encoding="utf-8"?>
<!-- Generator: Adobe Illustrator 19.0.0, SVG Export Plug-In . SVG Version: 6.00 Build 0)  -->
<svg version="1.1" id="Logo" xmlns="http://www.w3.org/2000/svg" xmlns:xlink="http://www.w3.org/1999/xlink" x="0px" y="0px"
	 viewBox="0 0 1080 1080" style="enable-background:new 0 0 1080 1080;" xml:space="preserve">
<style type="text/css">
	.st0{fill:#FFFFFF;}
</style>
<g id="XMLID_314_">
	<path id="XMLID_292_" class="st0" d="M877.8,317c-9.8-14.8-20.6-29-32.5-42.5c-6.1-7-12.4-13.8-19-20.4c-1.9-1.9-3.9-3.9-5.9-5.7
		c-3.2-3.1-6.5-6.2-9.8-9.2c-4.2-3.8-8.4-7.4-12.7-11c-4.3-3.6-8.6-7-13-10.4c-1.8-1.3-3.5-2.7-5.3-4c-10-7.4-20.3-14.2-30.9-20.6
		c-16.6-10.1-33.9-18.9-51.8-26.4c-49-20.6-102.1-31.5-156.9-31.5c-55.5,0-108.5,11.2-156.7,31.6c-17.9,7.5-35.3,16.4-51.8,26.4
		c-10.6,6.4-20.9,13.3-30.9,20.6c-14.4,10.6-28.1,22.1-40.9,34.5c-8.7,8.3-17,17-24.9,26.1c-11.7,13.4-22.6,27.6-32.5,42.6
		C159.8,381.2,135,458,135,540.5c0,97.9,35.4,192.3,99.6,266c62.8,72,148.9,119.6,242.8,134.1v-53.9
		C311.7,856.9,188.2,710,188.2,540.5c0-69.4,20.3-134.3,55.1-188.8c9.6-15,20.3-29.2,31.9-42.6c8-9.1,16.4-17.8,25.3-26.1h0
		c67.1,49.4,149.9,78.6,239.5,78.6c89.5,0,172.4-29.2,239.5-78.6h0c3.1,2.8,6.1,5.8,9.2,8.8c5.6,5.6,11,11.3,16.1,17.3
		c11.8,13.5,22.5,27.6,32,42.5c35.8,55.9,55,120.9,55,188.9c0,170.8-124.4,316.5-289.2,346.2c-11.8,2.2-23.8,3.7-36,4.6V591.1
		c10.4,8.3,20.4,17.2,29.9,26.7c21,21,39.3,44.6,54.4,70.1l45.8-27.1c-17.3-29.3-38.3-56.4-62.5-80.6c-8.3-8.3-17.1-16.3-26.1-23.9
		c38.4-2.8,77.4,0.5,114.5,10l13.3-51.6c-44.4-11.4-90.9-15.1-136.7-11.2c5.8-6.7,11.8-13.3,18.1-19.6c21-21,44.6-39.3,70.1-54.4
		l-27.1-45.8c-29.3,17.3-56.4,38.3-80.6,62.5c-14.4,14.4-27.6,29.8-39.6,46c-12-16.3-25.3-31.7-39.6-46
		c-24.2-24.2-51.3-45.2-80.6-62.5l-27.1,45.8c25.4,15,49,33.3,70,54.4c6.3,6.3,12.4,12.8,18.2,19.6c-45.8-4-92.4-0.2-136.7,11.2
		l13.2,51.6c37.1-9.6,76.1-12.9,114.5-10c-9,7.6-17.7,15.6-26.1,23.9c-24.2,24.2-45.2,51.3-62.5,80.6l45.8,27.1
		c15-25.5,33.3-49,54.4-70.1c9.5-9.5,19.5-18.4,29.9-26.7v300.2c0,14.8,6.2,29,17,39c9.8,9.2,22.8,14.2,36.2,14.2
		c1.3,0,2.6,0,3.9-0.1c10.8-0.8,21.5-2,32.1-3.7c89.3-13.9,171.3-57.2,233.6-124.1C906.4,741.4,945,643.4,945,540.5
		C945,459.8,921.5,382.8,877.8,317z M540,188.7c32.5,0,64.3,4.4,94.7,12.8c-30,11.6-62,17.7-94.7,17.7c-32.7,0-64.6-6-94.5-17.6
		C475.5,193.2,507.3,188.7,540,188.7z M540,308.5c-72.6,0-140-22.1-196.1-59.9c11.1-7.5,22.7-14.4,34.7-20.6
		c48.8,29.2,104.2,44.5,161.4,44.5c57.2,0,112.7-15.3,161.5-44.5c11.9,6.2,23.5,13.1,34.7,20.6C680.1,286.3,612.6,308.5,540,308.5z
		 M540,540.5L540,540.5L540,540.5L540,540.5z"/>
</g>
</svg>
