<?xml version="1.0" encoding="utf-8"?>
<!-- Generator: Adobe Illustrator 19.0.0, SVG Export Plug-In . SVG Version: 6.00 Build 0)  -->
<svg version="1.1" id="Logo" xmlns="http://www.w3.org/2000/svg" xmlns:xlink="http://www.w3.org/1999/xlink" x="0px" y="0px"
	 viewBox="0 0 1080 1080" style="enable-background:new 0 0 1080 1080;" xml:space="preserve">
<style type="text/css">
	.st0{fill:#FFFFFF;}
</style>
<g id="XMLID_3_">
	<g id="XMLID_314_">
		<path id="XMLID_292_" class="st0" d="M390.3,463.4c-3.4-5.1-7.1-10-11.2-14.6c-2.1-2.4-4.3-4.7-6.5-7c-0.7-0.7-1.3-1.3-2-2
			c-1.1-1.1-2.2-2.1-3.4-3.2c-1.4-1.3-2.9-2.5-4.4-3.8c-1.5-1.2-3-2.4-4.5-3.6c-0.6-0.5-1.2-0.9-1.8-1.4c-3.4-2.5-7-4.9-10.6-7.1
			c-5.7-3.5-11.7-6.5-17.8-9.1c-16.9-7.1-35.1-10.8-53.9-10.8c-19.1,0-37.3,3.9-53.9,10.9c-6.2,2.6-12.1,5.6-17.8,9.1
			c-3.7,2.2-7.2,4.6-10.6,7.1c-5,3.6-9.6,7.6-14.1,11.8c-3,2.9-5.8,5.9-8.5,9c-4,4.6-7.8,9.5-11.2,14.6
			c-14.6,22-23.1,48.4-23.1,76.8c0,33.6,12.2,66.1,34.2,91.4c21.6,24.8,51.2,41.1,83.4,46.1v-18.5c-56.9-10.2-99.4-60.7-99.4-119
			c0-23.9,7-46.1,18.9-64.9c3.3-5.2,7-10.1,11-14.6c2.7-3.1,5.6-6.1,8.7-9h0c23.1,17,51.5,27,82.3,27c30.8,0,59.3-10.1,82.3-27h0
			c1.1,1,2.1,2,3.1,3c1.9,1.9,3.8,3.9,5.5,5.9c4.1,4.6,7.7,9.5,11,14.6c12.3,19.2,18.9,41.6,18.9,64.9c0,58.7-42.8,108.8-99.4,119
			c-4.1,0.7-8.2,1.3-12.4,1.6V557.5c3.6,2.9,7,5.9,10.3,9.2c7.2,7.2,13.5,15.3,18.7,24.1l15.8-9.3c-5.9-10.1-13.2-19.4-21.5-27.7
			c-2.9-2.9-5.9-5.6-9-8.2c13.2-1,26.6,0.2,39.4,3.5l4.6-17.7c-15.3-3.9-31.2-5.2-47-3.8c2-2.3,4.1-4.6,6.2-6.7
			c7.2-7.2,15.3-13.5,24.1-18.7l-9.3-15.8c-10.1,6-19.4,13.2-27.7,21.5c-4.9,4.9-9.5,10.2-13.6,15.8c-4.1-5.6-8.7-10.9-13.6-15.8
			c-8.3-8.3-17.6-15.5-27.7-21.5l-9.3,15.8c8.7,5.2,16.8,11.4,24.1,18.7c2.2,2.2,4.3,4.4,6.2,6.7c-15.7-1.4-31.7-0.1-47,3.8
			l4.5,17.7c12.8-3.3,26.2-4.4,39.4-3.5c-3.1,2.6-6.1,5.3-9,8.2c-8.3,8.3-15.5,17.6-21.5,27.7l15.8,9.3c5.2-8.8,11.4-16.8,18.7-24.1
			c3.3-3.3,6.7-6.3,10.3-9.2v103.2c0,5.1,2.1,10,5.9,13.4c3.4,3.2,7.9,4.9,12.4,4.9c0.4,0,0.9,0,1.3,0c3.7-0.3,7.4-0.7,11-1.3
			c30.7-4.8,58.9-19.7,80.3-42.6c24.1-25.8,37.4-59.5,37.4-94.9C413.4,512.4,405.4,486,390.3,463.4z M274.2,419.3
			c11.2,0,22.1,1.5,32.5,4.4c-10.3,4-21.3,6.1-32.5,6.1c-11.2,0-22.2-2.1-32.5-6.1C252.1,420.8,263,419.3,274.2,419.3z M274.2,460.4
			c-24.9,0-48.1-7.6-67.4-20.6c3.8-2.6,7.8-4.9,11.9-7.1c16.8,10,35.8,15.3,55.5,15.3c19.7,0,38.7-5.3,55.5-15.3
			c4.1,2.1,8.1,4.5,11.9,7.1C322.4,452.8,299.2,460.4,274.2,460.4z M274.2,540.2L274.2,540.2L274.2,540.2L274.2,540.2z"/>
	</g>
	<g id="XMLID_298_">
		<path id="XMLID_310_" class="st0" d="M543,556.7c4.2,5.4,6.4,11.7,6.4,18.6c0,10.1-3.5,18.1-10.6,24c-7,5.9-16.9,8.9-29.5,8.9
			h-56.2V487.5h54.3c12.3,0,21.9,2.8,28.8,8.4c6.9,5.6,10.4,13.2,10.4,22.9c0,7.1-1.9,13-5.6,17.7c-3.7,4.7-8.7,8-14.9,9.8
			C533.2,547.8,538.8,551.2,543,556.7z M482.5,536.3h19.2c4.8,0,8.5-1.1,11.1-3.2c2.6-2.1,3.9-5.2,3.9-9.4c0-4.1-1.3-7.3-3.9-9.5
			c-2.6-2.2-6.3-3.3-11.1-3.3h-19.2V536.3z M515.6,581.1c2.7-2.2,4-5.5,4-9.7c0-4.2-1.4-7.6-4.2-10c-2.8-2.4-6.7-3.6-11.6-3.6h-21.3
			v26.6h21.7C509.1,584.4,512.9,583.3,515.6,581.1z"/>
		<path id="XMLID_307_" class="st0" d="M566.1,534.1c3.7-7.4,8.8-13.2,15.2-17.2c6.4-4,13.6-6,21.5-6c6.8,0,12.7,1.4,17.8,4.1
			c5.1,2.8,9,6.4,11.8,10.8v-13.6h29.4v95.9h-29.4v-13.6c-2.9,4.5-6.8,8.1-11.9,10.8c-5.1,2.8-11,4.1-17.8,4.1
			c-7.8,0-14.9-2-21.3-6.1c-6.4-4.1-11.5-9.9-15.2-17.4c-3.7-7.5-5.6-16.2-5.6-26C560.6,550.2,562.4,541.5,566.1,534.1z
			 M626.3,542.8c-4.1-4.2-9-6.4-14.9-6.4c-5.8,0-10.8,2.1-14.9,6.3c-4.1,4.2-6.1,9.9-6.1,17.3c0,7.3,2,13.1,6.1,17.4
			c4.1,4.3,9,6.4,14.9,6.4c5.8,0,10.8-2.1,14.9-6.4c4.1-4.2,6.1-10,6.1-17.4C632.4,552.9,630.4,547.1,626.3,542.8z"/>
		<path id="XMLID_305_" class="st0" d="M768.5,522.1c6.6,7.3,10,17.3,10,30v56h-29.2v-52.1c0-6.4-1.7-11.4-5-15
			c-3.3-3.6-7.8-5.3-13.4-5.3c-5.6,0-10.1,1.8-13.4,5.3c-3.3,3.6-5,8.5-5,15v52.1h-29.4V481h29.4v44.2c3-4.2,7-7.6,12.2-10.1
			c5.2-2.5,10.9-3.8,17.4-3.8C753,511.2,761.9,514.9,768.5,522.1z"/>
		<path id="XMLID_302_" class="st0" d="M801.1,497.7c-3.3-3-4.9-6.8-4.9-11.3c0-4.6,1.6-8.4,4.9-11.4s7.5-4.6,12.6-4.6
			c5,0,9.2,1.5,12.5,4.6s4.9,6.8,4.9,11.4c0,4.5-1.6,8.2-4.9,11.3s-7.4,4.6-12.5,4.6C808.5,502.3,804.3,500.8,801.1,497.7z
			 M828.3,512.2v95.9h-29.4v-95.9H828.3z"/>
		<path id="XMLID_299_" class="st0" d="M849.4,534.1c3.7-7.4,8.8-13.2,15.2-17.2c6.4-4,13.6-6,21.5-6c6.8,0,12.7,1.4,17.8,4.1
			c5.1,2.8,9,6.4,11.8,10.8v-13.6H945v95.9h-29.4v-13.6c-2.9,4.5-6.8,8.1-11.9,10.8c-5.1,2.8-11,4.1-17.8,4.1
			c-7.8,0-14.9-2-21.3-6.1c-6.4-4.1-11.5-9.9-15.2-17.4c-3.7-7.5-5.6-16.2-5.6-26C843.8,550.2,845.6,541.5,849.4,534.1z
			 M909.5,542.8c-4.1-4.2-9-6.4-14.9-6.4c-5.8,0-10.8,2.1-14.9,6.3c-4.1,4.2-6.1,9.9-6.1,17.3c0,7.3,2,13.1,6.1,17.4
			c4.1,4.3,9,6.4,14.9,6.4c5.8,0,10.8-2.1,14.9-6.4c4.1-4.2,6.1-10,6.1-17.4C915.6,552.9,913.6,547.1,909.5,542.8z"/>
	</g>
</g>
</svg>
